<?xml version="1.0" encoding="utf-8"?>
<!-- Generator: Adobe Illustrator 22.1.0, SVG Export Plug-In . SVG Version: 6.00 Build 0)  -->
<svg version="1.1" id="Layer_1" xmlns="http://www.w3.org/2000/svg" xmlns:xlink="http://www.w3.org/1999/xlink" x="0px" y="0px"
	 viewBox="0 0 512 512" style="enable-background:new 0 0 512 512;" xml:space="preserve">
<g>
	<title>epic-games</title>
	<g>
		<path d="M112.9,31c-25.8,0-35.2,9.5-35.2,35.2v310.5c0,2.9,0.2,5.6,0.4,8.1c0.7,5.6,0.7,11.1,5.9,17.3c0.5,0.7,5.8,4.6,5.8,4.6
			c2.9,1.4,4.8,2.4,8,3.7L254.1,476c8.1,3.7,11.5,5.2,17.4,5h0.1c5.9,0.2,9.4-1.3,17.4-5l156.2-65.5c3.3-1.3,5.2-2.3,8.1-3.7
			c0,0,5.3-4,5.8-4.6c5.3-6.1,5.3-11.6,5.9-17.3c0.2-2.5,0.4-5.2,0.4-8.1V66.2c0-25.7-9.5-35.2-35.2-35.2L112.9,31z M363.3,89.3
			h12.7c21.2,0,31.7,10.3,31.7,31.9v35.2h-25.8v-33.8c0-6.9-3.1-10-9.8-10h-4.4c-6.9,0-10,3.1-10,10v109c0,6.9,3.1,10,10,10h4.9
			c6.6,0,9.7-3.1,9.7-10v-39h25.8v40.2c0,21.4-10.5,32-31.9,32h-13c-21.4,0-31.9-10.6-31.9-32V121.3
			C331.5,99.9,341.9,89.3,363.3,89.3L363.3,89.3z M134.8,90.8h58.4v23.9H161v48.8h31v23.9h-31v52h32.6v24h-58.8L134.8,90.8z
			 M206.4,90.8h41.2c21.3,0,31.9,10.6,31.9,32.1v45.9c0,21.4-10.6,32-31.9,32h-14.9v62.6h-26.3L206.4,90.8z M291.3,90.8h26.2v172.6
			h-26.2V90.8z M232.6,114v63.6h10.8c6.6,0,9.7-3.2,9.7-10.1v-43.4c0-6.9-3.1-10.1-9.7-10.1L232.6,114z M160.3,304.3h3.9l0.9,0.2
			h1.4l0.7,0.2h0.7l0.7,0.2l0.7,0.2l0.6,0.2l1.3,0.3l0.7,0.2l0.5,0.2l0.6,0.2l0.7,0.2l0.5,0.2l0.7,0.3l0.7,0.3l0.6,0.4l0.7,0.3
			l0.5,0.4l0.7,0.4l0.6,0.4l0.6,0.3l0.6,0.4l0.6,0.4l0.5,0.4l1.8,1.3l-0.4,0.6l-0.5,0.5l-0.4,0.5l-0.5,0.6l-0.4,0.5l-0.4,0.5
			l-0.5,0.5l-0.4,0.6l-0.4,0.5l-0.5,0.6l-0.4,0.5l-0.5,0.6l-0.4,0.5l-0.4,0.6l-0.5,0.5l-0.4,0.6l-0.5,0.5l-0.4,0.5l-0.5-0.4
			l-0.6-0.5l-0.6-0.4l-1.1-0.7l-0.7-0.4l-0.6-0.4l-0.7-0.4l-0.5-0.3l-0.6-0.3l-1.2-0.4l-0.7-0.1l-0.6-0.2l-0.7-0.2l-0.7-0.2
			l-0.7-0.1h-0.7l-0.9-0.2h-1.4l-0.7,0.1h-0.7l-0.7,0.2l-0.6,0.2l-0.7,0.2l-0.7,0.1l-0.6,0.3l-0.7,0.3l-1,0.7l-0.6,0.4l-0.5,0.4
			l-0.5,0.4l-0.5,0.4l-0.4,0.5l-0.6,0.5l-0.7,1l-0.4,0.6l-0.3,0.7l-0.4,0.5l-0.4,0.7l-0.2,0.7L149,326l-0.2,0.7l-0.1,0.7l-0.2,0.7
			l-0.2,0.7v0.7l-0.1,0.7v1.7l0.1,0.7v0.6l0.1,0.7l0.1,0.7l0.2,0.6l0.1,0.7l0.2,0.6l0.2,0.5l0.3,0.7l0.4,0.7l0.3,0.5l0.7,1.2
			l0.4,0.6l0.4,0.5l0.6,0.4l0.4,0.5l0.5,0.4l1.2,0.9l0.5,0.3l0.6,0.4l0.7,0.3l0.7,0.3l0.5,0.3l1.5,0.4l0.7,0.1l0.7,0.2l0.7,0.1h3.1
			l0.9-0.1h0.7l0.7-0.3l0.7-0.1l0.7-0.2l0.6-0.2l0.7-0.3l0.6-0.3l0.7-0.3l0.4-0.3l0.6-0.4v-6.5h-10.3v-10.5h23.4v23.4l-0.5,0.4
			l-0.5,0.4l-0.5,0.4l-0.6,0.4l-0.6,0.3l-0.5,0.4l-1.2,0.7l-0.7,0.4l-1.2,0.7l-0.7,0.3l-0.6,0.3l-0.7,0.3l-1.5,0.6l-0.6,0.3
			l-1.3,0.4l-0.7,0.2l-0.7,0.2l-0.7,0.2l-0.6,0.1l-2.2,0.4l-0.7,0.1l-1.5,0.2l-0.8,0.1l-0.7,0.1l-0.8,0.1h-3.7l-0.7-0.1h-0.7
			l-0.7-0.2H157l-0.7-0.2l-2.1-0.4l-0.6-0.2l-0.7-0.1l-0.7-0.3l-1.3-0.4l-1.3-0.6l-0.7-0.3l-0.5-0.3l-0.7-0.3l-0.5-0.4l-0.7-0.3
			l-0.4-0.4l-0.6-0.4l-1.2-0.9l-0.6-0.4l-0.4-0.4l-0.6-0.4l-1-0.9l-0.5-0.4l-0.4-0.5l-0.5-0.5l-0.4-0.6l-0.4-0.4l-0.4-0.6l-0.4-0.6
			l-0.4-0.5l-0.4-0.6l-0.4-0.7l-0.3-0.6l-0.3-0.7l-0.3-0.6l-0.6-1.3l-0.2-0.5l-0.3-0.7l-0.2-0.7l-0.1-0.6l-0.2-0.7l-0.2-0.7
			l-0.2-0.7l-0.1-0.6l-0.1-0.7l-0.2-1.3l-0.2-1.5V329l0.2-0.7v-0.7l0.2-0.7V326l0.2-0.7l0.2-0.7l0.3-1.3l0.2-0.7l0.2-0.7l0.9-2
			l0.3-0.6l0.3-0.7l0.4-0.7l0.3-0.6l0.4-0.5l0.7-1.2l0.4-0.6l0.4-0.5l0.4-0.6l1-1l0.4-0.5l0.5-0.5l0.4-0.5l0.6-0.4l1-0.9l0.6-0.4
			l0.6-0.4l0.5-0.4l0.6-0.4l0.6-0.3l0.7-0.4l0.7-0.4l0.5-0.4l0.7-0.3l0.7-0.3l0.7-0.4l0.6-0.2l0.7-0.2l0.6-0.3l0.7-0.1l0.7-0.2
			l0.7-0.2l0.6-0.2l0.7-0.2h0.7l0.7-0.2h0.7l0.7-0.2h0.7L160.3,304.3z M385.1,304.5h3.9l0.9,0.2h1.4l0.7,0.2h0.8l0.7,0.2l1.3,0.3
			l0.7,0.2l0.7,0.1l0.7,0.2l0.7,0.2l0.6,0.2l0.7,0.2l0.7,0.2l0.6,0.3l0.7,0.3l0.7,0.3l0.7,0.4l0.5,0.3l0.7,0.4l0.7,0.3l0.6,0.4
			l0.7,0.4l0.5,0.4l1.2,0.9l0.6,0.4l-0.4,0.6l-0.4,0.6l-0.4,0.5l-0.4,0.6l-0.4,0.7l-0.4,0.6l-0.4,0.5l-0.4,0.6l-0.4,0.6l-0.4,0.6
			l-0.4,0.5l-0.4,0.6l-0.4,0.7l-0.4,0.6l-0.4,0.5l-0.4,0.6l-0.4,0.6l-0.6-0.4l-0.7-0.4l-0.5-0.4l-0.6-0.4l-0.7-0.3l-0.6-0.4
			l-0.7-0.3l-0.5-0.3l-0.7-0.3l-0.5-0.3l-0.6-0.2l-1.3-0.4l-1.5-0.4l-2.2-0.4l-0.7-0.1L387,316h-1.5l-0.8,0.2l-0.7,0.2l-0.7,0.2
			l-0.6,0.3l-0.5,0.3l-0.6,0.5l-0.4,0.7l-0.3,0.7v1.7l0.4,0.8l0.3,0.4l0.4,0.4l0.7,0.4l0.6,0.4l0.7,0.3l0.7,0.3l1,0.2l0.5,0.2
			l0.6,0.2l0.7,0.2l0.6,0.2l0.7,0.2l0.8,0.2l0.7,0.2l0.8,0.2l0.8,0.2l0.7,0.2l0.8,0.2l0.7,0.2l0.7,0.2l2.2,0.7l0.6,0.2l0.7,0.2
			l0.7,0.3l0.7,0.4l1.5,0.6l0.7,0.4l1.2,0.7l1.1,0.8l0.7,0.4l0.5,0.5l0.5,0.6l0.5,0.5l0.4,0.5l0.5,0.7l0.4,0.5l0.3,0.7l0.3,0.4
			l0.2,0.7l0.2,0.6l0.2,0.7l0.3,1.5l0.1,0.7l0.1,0.7v1.8l-0.1,0.8l-0.2,1.5l-0.2,0.7l-0.2,0.7l-0.2,0.7l-0.2,0.7l-0.2,0.7l-0.3,0.5
			l-0.3,0.7l-0.4,0.6l-0.4,0.5l-0.7,1.2l-0.9,1l-0.5,0.4l-0.6,0.5l-0.4,0.4l-0.6,0.4l-0.6,0.3l-0.6,0.4l-0.7,0.4l-1.3,0.7l-0.7,0.3
			l-0.7,0.3l-0.7,0.2l-0.7,0.2l-0.6,0.2l-1.5,0.3l-0.5,0.2l-0.7,0.2h-0.7l-0.7,0.2h-0.7l-0.7,0.2h-5.2l-2.2-0.2l-0.7-0.2l-0.7-0.1
			l-1.5-0.3l-0.8-0.2l-0.7-0.2l-0.7-0.2l-0.7-0.2l-0.7-0.2l-0.7-0.2l-0.7-0.3l-0.6-0.2l-0.7-0.2l-0.7-0.3l-0.5-0.3l-0.7-0.2
			l-0.6-0.4l-0.7-0.3l-0.6-0.4l-0.5-0.4l-0.7-0.4l-0.5-0.3l-0.6-0.4l-0.6-0.4l-0.6-0.4l-0.5-0.4l-0.6-0.4L365,350l-0.6-0.5l0.4-0.6
			l0.5-0.5l0.4-0.5l0.5-0.6l0.4-0.5l0.4-0.6l0.5-0.5l0.4-0.5l0.5-0.6l0.4-0.5l0.5-0.5l0.4-0.6l0.4-0.5l0.5-0.6l0.4-0.5l0.5-0.5
			l0.5-0.6l0.5,0.4l0.7,0.4l0.5,0.4l0.7,0.4l0.5,0.4l0.7,0.4l0.6,0.4l0.7,0.3l0.5,0.4l0.7,0.2l0.7,0.3l0.6,0.3l0.7,0.2l0.6,0.3
			l0.7,0.2l0.7,0.2l0.7,0.2l0.7,0.1l0.7,0.2l0.7,0.1h0.8l0.7,0.2h4l0.7-0.1l0.7-0.2l0.5-0.1l0.6-0.2l0.5-0.3l0.7-0.4l0.4-0.5
			l0.3-0.6l0.2-0.7v-1.7l-0.3-0.7l-0.4-0.6L394,340l-0.7-0.4l-0.5-0.2l-0.7-0.3l-0.7-0.3l-0.8-0.4l-0.5-0.2l-0.6-0.2l-0.7-0.2
			l-0.5-0.1l-0.7-0.2l-0.7-0.1l-0.7-0.3l-0.7-0.1l-0.8-0.2l-0.7-0.2l-0.7-0.2l-0.7-0.2l-0.7-0.2l-0.7-0.2l-0.7-0.2l-0.6-0.2
			l-1.3-0.4l-0.7-0.3l-0.7-0.2l-1.5-0.6l-0.7-0.4l-0.7-0.4l-0.5-0.4l-0.7-0.4l-0.5-0.4l-0.7-0.4l-1-1l-0.5-0.4l-0.9-1l-0.4-0.5
			l-0.3-0.5l-0.4-0.7l-0.2-0.5l-0.7-1.8l-0.1-0.7l-0.2-0.7v-0.7l-0.2-0.7v-3l0.2-1.5l0.2-0.6l0.1-0.7l0.2-0.6l0.2-0.7l0.3-0.5
			l0.3-0.7l0.3-0.6l0.3-0.7l0.4-0.5l0.5-0.6l0.4-0.6l0.6-0.5l0.4-0.5l0.4-0.6l0.7-0.5l0.4-0.4l0.6-0.4l1.2-0.7l0.7-0.4l1.3-0.7
			l0.6-0.2l0.7-0.2l0.7-0.3l0.7-0.2l0.5-0.2l0.7-0.2l0.6-0.2l0.7-0.2l0.7-0.2l1.5-0.1l0.7-0.1L385.1,304.5z M211.9,305h13.3l0.6,1.3
			l0.3,0.6l0.2,0.7l0.3,0.7l0.2,0.6l0.4,0.7l0.4,1.3l0.4,0.7l0.6,1.3l0.2,0.6l1.2,2.6l0.2,0.7l0.3,0.6l0.4,0.7l0.2,0.7l0.4,0.7
			l0.1,0.7l0.7,1.3l0.3,0.5l0.3,0.7l0.2,0.7l0.2,0.5l0.4,0.7l0.2,0.6l0.3,0.7l0.2,0.5l0.3,0.7l0.7,1.3l0.2,0.7l0.2,0.7l0.3,0.7
			l0.4,0.6l0.3,0.7l0.3,0.7l0.2,0.6l0.6,1.3l0.2,0.7l0.3,0.7l0.2,0.7l0.3,0.6l0.4,0.7l0.3,0.7l0.3,0.6l0.2,0.7l0.6,1.3l0.3,0.6
			l0.2,0.7l0.6,1.3l0.4,0.7l0.2,0.6l0.4,0.7l0.1,0.5l0.3,0.7l0.4,0.7l0.3,0.5l0.2,0.7l0.3,0.6l0.2,0.7l0.4,0.5l0.4,1.5l0.3,0.5
			l0.3,0.7l0.4,0.6l0.3,0.7l0.1,0.7l0.2,0.6l0.3,0.7l0.4,0.6h-14.6l-0.4-0.6l-0.2-0.7l-0.3-0.7l-0.3-0.7l-0.2-0.6l-0.6-1.3l-0.2-0.6
			l-0.6-1.3l-0.2-0.6l-0.3-0.7l-0.4-1.3l-0.3-0.6h-20.4l-0.3,0.7l-0.2,0.6l-0.3,0.7l-0.3,0.7l-0.2,0.6l-0.3,0.7l-0.3,0.6l-0.2,0.7
			l-0.3,0.6l-0.3,0.7l-0.2,0.5l-0.3,0.7l-0.2,0.7l-0.3,0.5l-0.2,0.7h-14.5l0.2-0.7l0.6-1.3l0.2-0.7l0.2-0.6l0.4-0.7l0.3-0.7l0.3-0.6
			l0.2-0.7l0.3-0.7l0.4-0.6l0.3-0.7l0.4-1.3l0.7-1.3l0.2-0.7l0.3-0.6l0.2-0.7l0.9-2l0.3-0.7l0.2-0.6l0.2-0.7l0.4-0.6l0.3-0.7
			l0.2-0.7l0.2-0.6l0.3-0.7l0.4-0.5l0.2-0.7l0.3-0.6l0.2-0.7l0.3-0.7l0.4-0.6l0.2-0.7l0.3-0.5l0.2-0.7l0.3-0.7l0.3-0.5l0.3-0.7
			l0.2-0.6l0.3-0.7l0.2-0.5l0.4-0.7l0.3-0.7l0.3-0.6l0.2-0.7l0.3-0.7l0.4-0.7l0.3-0.6l0.2-0.7l0.3-0.7l0.3-0.6l0.6-1.3l0.2-0.6
			l0.6-1.5l0.3-0.5l0.3-0.7l0.2-0.6l0.2-0.7l0.3-0.7l0.4-0.6l0.3-0.7l0.2-0.5l0.2-0.7l0.3-0.6l0.4-0.7l0.2-0.7l0.2-0.6l0.3-0.7
			l0.3-0.5l0.4-0.7l0.2-0.7l0.2-0.5l0.3-0.7L211.9,305z M253,305.4h14.5l0.4,0.6l0.7,1.2l0.4,0.7l0.4,0.5l0.4,0.7l0.4,0.6l0.4,0.7
			l0.4,0.6l0.4,0.5l0.4,0.7l0.4,0.6l0.5,0.6l0.2,0.6l0.4,0.7l0.4,0.6l0.4,0.5l0.3,0.7l0.4,0.6l0.4,0.6l0.2,0.6l0.5,0.7l1.1,1.8
			l0.3,0.6l0.4,0.6l0.4,0.6l0.4,0.7l1.1,1.7l0.4,0.7l0.4,0.6l0.4-0.6l0.3-0.7l0.4-0.5l0.4-0.7l0.4-0.5l0.3-0.7l0.5-0.5l0.4-0.7
			l0.3-0.5l0.4-0.6l0.4-0.7l0.4-0.5l0.4-0.7l0.4-0.5l0.4-0.7l0.3-0.5l0.4-0.7l0.4-0.4l0.4-0.6l0.4-0.7l0.4-0.5l0.3-0.7l0.4-0.5
			l0.4-0.7l0.4-0.4l0.4-0.6l0.4-0.7l0.4-0.5l0.4-0.7l0.4-0.5l0.4-0.7l0.4-0.5l0.3-0.7l0.4-0.5h14.7v52.3h-13.8v-30.8l-0.4,0.5
			l-0.4,0.7l-0.4,0.4l-0.4,0.6l-0.3,0.7l-0.4,0.5l-0.4,0.5l-0.4,0.7l-0.7,1l-0.4,0.6l-0.4,0.7l-0.4,0.5l-0.4,0.5l-0.3,0.7l-0.4,0.5
			l-0.4,0.5l-0.4,0.7l-0.4,0.5l-0.4,0.6l-0.4,0.7l-0.3,0.5l-0.4,0.6l-0.4,0.7l-0.4,0.5l-0.4,0.6l-0.3,0.6l-0.4,0.7l-0.4,0.5
			l-0.4,0.6l-0.3,0.7l-0.5,0.4l-0.3,0.6l-0.4,0.7l-0.4,0.5H280l-0.4-0.7l-0.4-0.6l-0.4-0.7l-0.4-0.5l-0.4-0.7l-0.4-0.6l-0.4-0.6
			l-0.4-0.6l-0.4-0.7l-0.4-0.5l-0.5-0.7l-0.3-0.6l-0.4-0.7l-0.4-0.5l-0.4-0.7l-0.4-0.6l-0.4-0.7l-0.4-0.5l-0.4-0.7l-0.4-0.6
			l-0.4-0.7l-0.4-0.5l-0.4-0.7l-0.4-0.6l-0.3-0.6l-0.4-0.6l-0.4-0.7l-0.4-0.5l-0.4-0.7l-0.4-0.6l-0.3-0.7l-0.5-0.5l-0.3-0.7
			l-0.4-0.6v30.8h-13.5v-51.8L253,305.4z M318.1,305.4h41.2v11.8h-27.5v8.4h24.7v11.1h-24.7v8.9h27.9v11.9h-41.5v-51.7L318.1,305.4z
			 M218.3,321.4l-0.2,0.7l-0.2,0.6l-0.3,0.7l-0.3,0.7l-0.2,0.7l-0.6,1.3l-0.3,0.7l-0.2,0.6l-0.2,0.7l-0.3,0.5l-0.2,0.7l-0.3,0.7
			l-0.3,0.5l-0.2,0.7l-0.3,0.6l-0.2,0.7l-0.4,0.7l-0.2,0.6l-0.3,0.7l-0.3,0.7l-0.2,0.6l-0.3,0.7h12.1l-0.3-0.7l-0.2-0.7l-0.6-1.3
			l-0.2-0.7l-0.3-0.6l-0.2-0.7l-0.3-0.7l-0.2-0.7l-0.3-0.6l-0.2-0.7l-0.3-0.7L221,328l-0.6-1.3l-0.1-0.7l-0.3-0.7l-0.3-0.7l-0.2-0.5
			l-0.6-1.5l-0.2-0.7L218.3,321.4z M196.8,419.3H347l-76.7,25.3L196.8,419.3z"/>
	</g>
</g>
</svg>
